# xmcd
#
# Track frame offsets: 
#        150
#        21115
#        33627
#        46757
#        62710
#        91232
#        115955
#        129762
#        146557
#        156445
#        182677
#        196407
#        223850
#        237900
#        256712
#
# Disc length: 3595 seconds
#
# Revision: 2
# Processed by: cddbd v1.5.2PL0 Copyright (c) Steve Scherf et al.
# Submitted via: ExactAudioCopyFreeDBPlugin 1.0
#
DISCID=ce0e090f
DTITLE=Various Artist - More Bay Area Blues
DYEAR=1996
DGENRE=Blues
TTITLE0=Garry Smith Blues Band -  I Can't Seem To Shake These Blues
TTITLE1=Kenny "Blue" - Ray - Squeezin
TTITLE2=Nick Gravenites - Hard Thing
TTITLE3=Wendy DeWitt And Blue Saloon - Hard Times
TTITLE4=John "Bradway" Tucker and The Broadway Band - Good Woman
TTITLE5=Harvey Mandel - Million Dollar Feeling
TTITLE6=Henry Oden - Shade Tree Mechanic
TTITLE7=Lisa Kindred and Chris Goddard - Minglewood Blues
TTITLE8=Mike Henderson Blues Band - Homesick
TTITLE9=Chuck Vincent and Shuffle - Boogie 'Til We All Fall Down
TTITLE10=Bluefeans - Somebody Told Me
TTITLE11=Mike Wilhelm - Blues Medley Take I
TTITLE12=Doug Jay - Watch Your Step
TTITLE13=Stu Blank - Dimples
TTITLE14=Mark Naftalin - Treehouse Blues
EXTD=YEAR: 1996
EXTT0=
EXTT1=
EXTT2=
EXTT3=
EXTT4=
EXTT5=
EXTT6=
EXTT7=
EXTT8=
EXTT9=
EXTT10=
EXTT11=
EXTT12=
EXTT13=
EXTT14=
PLAYORDER=
